<?xml version="1.0" encoding="utf-8"?>
<!-- Generator: Adobe Illustrator 26.5.0, SVG Export Plug-In . SVG Version: 6.00 Build 0)  -->
<svg version="1.1" id="Calque_1" xmlns="http://www.w3.org/2000/svg" xmlns:xlink="http://www.w3.org/1999/xlink" x="0px" y="0px"
	 viewBox="0 0 297 210" style="enable-background:new 0 0 297 210;" xml:space="preserve">
<style type="text/css">
	.st0{fill:#222222;}
</style>
<g>
	<g>
		<path class="st0" d="M127.13,81.91V68.32h5.23v13.45c0,3.87,1.94,5.88,5.13,5.88c3.19,0,5.13-1.94,5.13-5.71V68.32h5.23v13.42
			c0,7.2-4.04,10.74-10.43,10.74S127.13,88.91,127.13,81.91z"/>
		<path class="st0" d="M154.56,82.15h6.32l-3.16-7.71l-2.34-6.29h4.82l10.19,23.95h-5.47l-2.17-5.33h-10.06L154.56,82.15z"/>
	</g>
	<path class="st0" d="M148.29,49.83c16.87,0,30.6,13.73,30.6,30.6c0,16.87-13.73,30.6-30.6,30.6s-30.6-13.73-30.6-30.6
		C117.69,63.56,131.42,49.83,148.29,49.83 M148.29,44.84c-19.66,0-35.59,15.93-35.59,35.59c0,19.66,15.93,35.59,35.59,35.59
		s35.59-15.93,35.59-35.59C183.88,60.78,167.95,44.84,148.29,44.84L148.29,44.84z"/>
</g>
<g>
	<g>
		<path class="st0" d="M17.31,154.04v-13.35h5.14v13.22c0,3.81,1.9,5.78,5.04,5.78c3.14,0,5.04-1.9,5.04-5.61v-13.39h5.14v13.19
			c0,7.08-3.97,10.55-10.25,10.55C21.15,164.42,17.31,160.92,17.31,154.04z"/>
		<path class="st0" d="M41.99,160.65l3.04-3.64c2.1,1.74,4.31,2.84,6.98,2.84c2.1,0,3.37-0.83,3.37-2.2v-0.07
			c0-1.3-0.8-1.97-4.71-2.97c-4.71-1.2-7.75-2.5-7.75-7.14v-0.07c0-4.24,3.41-7.04,8.18-7.04c3.41,0,6.31,1.07,8.68,2.97l-2.67,3.87
			c-2.07-1.44-4.11-2.3-6.08-2.3c-1.97,0-3,0.9-3,2.04v0.07c0,1.54,1,2.04,5.04,3.07c4.74,1.24,7.41,2.94,7.41,7.01v0.07
			c0,4.64-3.54,7.25-8.58,7.25C48.37,164.39,44.79,163.15,41.99,160.65z"/>
		<path class="st0" d="M65.63,140.68h17.63v4.57H70.74V150h11.02v4.57H70.74v4.91h12.69v4.57h-17.8V140.68z"/>
		<path class="st0" d="M89.67,140.68h10.68c2.97,0,5.28,0.83,6.81,2.37c1.3,1.3,2,3.14,2,5.34v0.07c0,3.77-2.04,6.14-5.01,7.25
			l5.71,8.35h-6.01l-5.01-7.48h-4.04v7.48h-5.14V140.68z M100.02,152.04c2.5,0,3.94-1.34,3.94-3.31v-0.07c0-2.2-1.54-3.34-4.04-3.34
			h-5.11v6.71H100.02z"/>
	</g>
	<path class="st0" d="M117.96,154.38h6.14l-3.07-7.5l-2.28-6.11h4.69l9.91,23.28h-5.32l-2.11-5.18h-9.77L117.96,154.38z"/>
	<path class="st0" d="M137.96,140.68h9.11c7.35,0,12.42,5.04,12.42,11.62v0.07c0,6.58-5.07,11.69-12.42,11.69h-9.11V140.68z
		 M147.07,159.41c4.21,0,7.05-2.84,7.05-6.98v-0.07c0-4.14-2.84-7.04-7.05-7.04h-3.97v14.09H147.07z"/>
	<path class="st0" d="M163.7,152.44v-0.07c0-6.64,5.18-12.09,12.25-12.09c4.21,0,6.74,1.14,9.18,3.2l-3.24,3.91
		c-1.8-1.5-3.41-2.37-6.11-2.37c-3.74,0-6.71,3.31-6.71,7.28v0.07c0,4.27,2.94,7.41,7.08,7.41c1.87,0,3.54-0.47,4.84-1.4v-3.34
		h-5.17v-4.44h10.15v10.15c-2.4,2.04-5.71,3.71-9.98,3.71C168.71,164.46,163.7,159.35,163.7,152.44z"/>
	<path class="st0" d="M191.59,140.68h17.63v4.57h-12.52V150h11.02v4.57h-11.02v4.91h12.69v4.57h-17.8V140.68z"/>
	<path class="st0" d="M214.63,140.68h4.74l10.95,14.39v-14.39h5.08v23.37h-4.37L219.7,149.2v14.86h-5.07V140.68z"/>
	<path class="st0" d="M247.12,145.42H240v-4.74h19.36v4.74h-7.11v18.63h-5.14V145.42z"/>
	<path class="st0" d="M261.87,160.65l3.04-3.64c2.1,1.74,4.31,2.84,6.98,2.84c2.1,0,3.37-0.83,3.37-2.2v-0.07
		c0-1.3-0.8-1.97-4.71-2.97c-4.71-1.2-7.75-2.5-7.75-7.14v-0.07c0-4.24,3.41-7.04,8.18-7.04c3.41,0,6.31,1.07,8.68,2.97l-2.67,3.87
		c-2.07-1.44-4.11-2.3-6.08-2.3c-1.97,0-3.01,0.9-3.01,2.04v0.07c0,1.54,1,2.04,5.04,3.07c4.74,1.24,7.41,2.94,7.41,7.01v0.07
		c0,4.64-3.54,7.25-8.58,7.25C268.25,164.39,264.68,163.15,261.87,160.65z"/>
</g>
</svg>
