<?xml version="1.0" encoding="UTF-8"?>
<svg id="Calque_1" data-name="Calque 1" xmlns="http://www.w3.org/2000/svg" viewBox="0 0 263.06 119.61">
  <defs>
    <style>
      .cls-1 {
        fill: black;
      }
    </style>
  </defs>
  <g>
    <g>
      <path class="cls-1" d="M109.82,37.07v-13.59h5.23v13.45c0,3.87,1.94,5.88,5.13,5.88s5.13-1.94,5.13-5.71v-13.62h5.23v13.42c0,7.2-4.04,10.74-10.43,10.74s-10.29-3.57-10.29-10.57Z"/>
      <path class="cls-1" d="M137.25,37.3h6.32l-3.16-7.71-2.34-6.29h4.82l10.19,23.95h-5.47l-2.17-5.33h-10.06l1.87-4.62Z"/>
    </g>
    <path class="cls-1" d="M130.98,4.99c16.87,0,30.6,13.73,30.6,30.6s-13.73,30.6-30.6,30.6-30.6-13.73-30.6-30.6,13.73-30.6,30.6-30.6m0-4.99c-19.66,0-35.59,15.93-35.59,35.59s15.93,35.59,35.59,35.59,35.59-15.93,35.59-35.59S150.63,0,130.98,0h0Z"/>
  </g>
  <g>
    <g>
      <path class="cls-1" d="M0,109.2v-13.35H5.14v13.22c0,3.81,1.9,5.78,5.04,5.78s5.04-1.9,5.04-5.61v-13.39h5.14v13.19c0,7.08-3.97,10.55-10.25,10.55S0,116.07,0,109.2Z"/>
      <path class="cls-1" d="M24.68,115.81l3.04-3.64c2.1,1.74,4.31,2.84,6.98,2.84,2.1,0,3.37-.83,3.37-2.2v-.07c0-1.3-.8-1.97-4.71-2.97-4.71-1.2-7.75-2.5-7.75-7.14v-.07c0-4.24,3.41-7.04,8.18-7.04,3.41,0,6.31,1.07,8.68,2.97l-2.67,3.87c-2.07-1.44-4.11-2.3-6.08-2.3s-3,.9-3,2.04v.07c0,1.54,1,2.04,5.04,3.07,4.74,1.24,7.41,2.94,7.41,7.01v.07c0,4.64-3.54,7.25-8.58,7.25-3.54,0-7.11-1.24-9.92-3.74Z"/>
      <path class="cls-1" d="M48.32,95.84h17.63v4.57h-12.52v4.74h11.02v4.57h-11.02v4.91h12.69v4.57h-17.8v-23.37Z"/>
      <path class="cls-1" d="M72.36,95.84h10.68c2.97,0,5.28,.83,6.81,2.37,1.3,1.3,2,3.14,2,5.34v.07c0,3.77-2.04,6.14-5.01,7.25l5.71,8.35h-6.01l-5.01-7.48h-4.04v7.48h-5.14v-23.37Zm10.35,11.35c2.5,0,3.94-1.34,3.94-3.31v-.07c0-2.2-1.54-3.34-4.04-3.34h-5.11v6.71h5.21Z"/>
    </g>
    <path class="cls-1" d="M100.64,109.54h6.14l-3.07-7.5-2.28-6.11h4.69l9.91,23.28h-5.32l-2.11-5.18h-9.77l1.82-4.49Z"/>
    <path class="cls-1" d="M120.65,95.84h9.11c7.35,0,12.42,5.04,12.42,11.62v.07c0,6.58-5.07,11.69-12.42,11.69h-9.11v-23.37Zm9.11,18.73c4.21,0,7.05-2.84,7.05-6.98v-.07c0-4.14-2.84-7.04-7.05-7.04h-3.97v14.09h3.97Z"/>
    <path class="cls-1" d="M146.39,107.59v-.07c0-6.64,5.18-12.09,12.25-12.09,4.21,0,6.74,1.14,9.18,3.2l-3.24,3.91c-1.8-1.5-3.41-2.37-6.11-2.37-3.74,0-6.71,3.31-6.71,7.28v.07c0,4.27,2.94,7.41,7.08,7.41,1.87,0,3.54-.47,4.84-1.4v-3.34h-5.17v-4.44h10.15v10.15c-2.4,2.04-5.71,3.71-9.98,3.71-7.28,0-12.29-5.11-12.29-12.02Z"/>
    <path class="cls-1" d="M174.27,95.84h17.63v4.57h-12.52v4.74h11.02v4.57h-11.02v4.91h12.69v4.57h-17.8v-23.37Z"/>
    <path class="cls-1" d="M197.31,95.84h4.74l10.95,14.39v-14.39h5.08v23.37h-4.37l-11.32-14.86v14.86h-5.07v-23.37Z"/>
    <path class="cls-1" d="M229.8,100.58h-7.11v-4.74h19.36v4.74h-7.11v18.63h-5.14v-18.63Z"/>
    <path class="cls-1" d="M244.56,115.81l3.04-3.64c2.1,1.74,4.31,2.84,6.98,2.84,2.1,0,3.37-.83,3.37-2.2v-.07c0-1.3-.8-1.97-4.71-2.97-4.71-1.2-7.75-2.5-7.75-7.14v-.07c0-4.24,3.41-7.04,8.18-7.04,3.41,0,6.31,1.07,8.68,2.97l-2.67,3.87c-2.07-1.44-4.11-2.3-6.08-2.3s-3.01,.9-3.01,2.04v.07c0,1.54,1,2.04,5.04,3.07,4.74,1.24,7.41,2.94,7.41,7.01v.07c0,4.64-3.54,7.25-8.58,7.25-3.54,0-7.11-1.24-9.92-3.74Z"/>
  </g>
</svg>